<svg width="40" height="40" viewBox="0 0 160 160" fill="none" xmlns="http://www.w3.org/2000/svg">
<g opacity="0.5">
<ellipse rx="80" ry="80" transform="matrix(-1 -8.74228e-08 -8.43042e-08 1 80 80)" fill="red"/>
<g opacity="0.5">
<path d="M80.0118 92.6999C97.2639 92.6999 112 95.42 112 106.3C112 117.184 97.3559 120 80.0118 120C62.7597 120 48.0236 117.284 48.0236 106.4C48.0236 95.516 62.6637 92.6999 80.0118 92.6999Z" fill="#14191E"/>
<path d="M80.0116 82.3362C68.2595 82.3362 58.8435 72.9162 58.8435 61.1681C58.8435 49.42 68.2595 40 80.0116 40C91.7596 40 101.18 49.4201 101.18 61.1681C101.18 72.9162 91.7596 82.3362 80.0116 82.3362Z" fill="#14191E"/>
</g>
</g>
</svg>
