<svg xmlns="http://www.w3.org/2000/svg" width="33.589" height="33.589" viewBox="0 0 33.589 33.589">
  <g id="Layer_1" data-name="Layer 1" transform="translate(-0.25 -0.25)">
    <path id="Subtraction_14" data-name="Subtraction 14" d="M27.893,33.589H5.721a1.627,1.627,0,0,0-.175-.05l-.038,0A6.268,6.268,0,0,1,.149,28.7c-.04-.169-.074-.349-.109-.533-.014-.065-.027-.133-.041-.2V8.266a1.713,1.713,0,0,0,.056-.205l0-.03A6.207,6.207,0,0,1,5.728,2.681c.185-.013.384-.019.647-.019.181,0,.365,0,.551.007l.213,0h.076l.313,0h.39v-.39c0-.145,0-.261.005-.363V1.851c0-.2.006-.382-.008-.572A1.1,1.1,0,0,1,8.674,0h.4a1.136,1.136,0,0,1,.755,1.323,5.448,5.448,0,0,0-.005.615c0,.1,0,.195,0,.294v.39H23.76v-.39c0-.1,0-.2,0-.3.005-.2.008-.4,0-.617A1.132,1.132,0,0,1,24.513,0h.4a1.1,1.1,0,0,1,.758,1.279,6.093,6.093,0,0,0,0,.656v.1c0,.07,0,.142,0,.214v.39h1.542a6.272,6.272,0,0,1,6.159,4.625c.058.216.1.437.148.65l.01.048c.011.047.021.1.031.144l.03.137V27.931a1.436,1.436,0,0,0-.05.178l-.005.032a6.259,6.259,0,0,1-4.769,5.271c-.2.047-.413.087-.61.125l-.262.052ZM1.9,12.485V27.164a4.546,4.546,0,0,0,1.267,3.244A4.509,4.509,0,0,0,6.41,31.684q5.191,0,10.382,0t10.385,0a4.346,4.346,0,0,0,4.5-4.52v-13.9l0-.782ZM6.62,4.523A4.712,4.712,0,0,0,3,6.01,5.153,5.153,0,0,0,1.947,10.2l.043.341H31.6l.042-.344a5.21,5.21,0,0,0-1.071-4.2,4.726,4.726,0,0,0-3.665-1.471,7.544,7.544,0,0,0-.9.056l-.343.042v.346c0,.289,0,.577,0,.862v.593c0,.367,0,.738,0,1.1a.934.934,0,0,1-.936.972h-.011a.939.939,0,0,1-.952-.973c0-.5,0-1.015,0-1.471,0-.247,0-.494,0-.742,0-.1-.005-.191-.01-.267,0-.039,0-.072-.005-.1l-.017-.371H9.821v.39q0,.444,0,.877v.045c0,.568,0,1.1,0,1.651a.936.936,0,0,1-.9.961h-.01c-.022,0-.045,0-.067,0a.92.92,0,0,1-.636-.253.93.93,0,0,1-.291-.687V7.547c-.008-.587-.005-1.17,0-1.713,0-.286,0-.57,0-.855V4.638l-.338-.045A7.043,7.043,0,0,0,6.62,4.523Z" transform="translate(0.25 0.25)" fill="#fff"/>
    <path id="Subtraction_15" data-name="Subtraction 15" d="M2.271,1.923c-.454,0-.908-.005-1.349-.015A.946.946,0,0,1,0,.951.947.947,0,0,1,.934,0c.146,0,.293,0,.438,0l.447,0,.45,0h.45l.445,0q.222,0,.444,0a.952.952,0,0,1,.017,1.9C3.18,1.918,2.725,1.923,2.271,1.923Z" transform="translate(6.852 25.343)" fill="#fff"/>
    <path id="Subtraction_16" data-name="Subtraction 16" d="M3.229,1.919l-.434,0H2.358c-.146,0-.293,0-.44,0H1.5c-.148,0-.3,0-.444,0H1.021l-.065,0A.956.956,0,0,1,.139.464.96.96,0,0,1,.955.005l.066,0h.032C1.5,0,1.94,0,2.37,0s.874,0,1.317.007a.964.964,0,0,1,.876.954.961.961,0,0,1-.877.953C3.552,1.917,3.407,1.919,3.229,1.919Z" transform="translate(22.591 25.343)" fill="#fff"/>
    <path id="Subtraction_17" data-name="Subtraction 17" d="M1.407,1.919c-.144,0-.288,0-.43,0A.961.961,0,0,1,0,.966.926.926,0,0,1,.278.293,1.007,1.007,0,0,1,.989.007C1.417,0,1.852,0,2.279,0s.864,0,1.292.007a.967.967,0,0,1,.992.958.971.971,0,0,1-.966.952H3.59l-.438,0H1.407Z" transform="translate(22.677 17.426)" fill="#fff"/>
    <path id="Subtraction_13" data-name="Subtraction 13" d="M2.356,1.921c-.453,0-.9,0-1.323-.009H.958a.965.965,0,0,1-.825-.468A.958.958,0,0,1,.958,0l.067,0,.016,0h.017c.145,0,.291,0,.436,0H3.25c.14,0,.281,0,.42,0h.017L3.7,0h.062a.961.961,0,0,1,.818.458.951.951,0,0,1,0,.991.966.966,0,0,1-.819.464l-.058,0H3.681C3.255,1.917,2.81,1.921,2.356,1.921Z" transform="translate(6.761 17.425)" fill="#fff"/>
    <path id="Subtraction_12" data-name="Subtraction 12" d="M2.31,1.922c-.411,0-.864,0-1.384-.014a.952.952,0,0,1,0-1.9c.154,0,.31,0,.464,0H3.166q.212,0,.426,0a.963.963,0,0,1,.88.944.965.965,0,0,1-.857.96C3.145,1.917,2.718,1.922,2.31,1.922Z" transform="translate(14.761 17.426)" fill="#fff"/>
    <path id="Subtraction_11" data-name="Subtraction 11" d="M3.234,1.916l-.476,0H2.281c-.142,0-.284,0-.429,0h-.4c-.149,0-.3,0-.446,0A.978.978,0,0,1,0,.958.923.923,0,0,1,.266.3,1.015,1.015,0,0,1,.995.006C1.406,0,1.84,0,2.285,0s.879,0,1.29.006A1.009,1.009,0,0,1,4.3.3a.922.922,0,0,1,.263.664.949.949,0,0,1-.972.951Z" transform="translate(14.749 25.347)" fill="#fff"/>
  </g>
</svg>
