<svg xmlns="http://www.w3.org/2000/svg" width="17.35" height="17.349" viewBox="0 0 17.35 17.349">
  <path id="Path_2745" data-name="Path 2745" d="M-5304.266,3490.5l-6.541-6.541-6.541,6.541a1.251,1.251,0,0,1-1.768,0,1.249,1.249,0,0,1,0-1.768l6.541-6.541-6.541-6.541a1.249,1.249,0,0,1,0-1.768,1.249,1.249,0,0,1,1.768,0l6.541,6.541,6.541-6.541a1.249,1.249,0,0,1,1.768,0,1.251,1.251,0,0,1,0,1.768l-6.541,6.541,6.541,6.541a1.251,1.251,0,0,1,0,1.768,1.249,1.249,0,0,1-.884.365A1.245,1.245,0,0,1-5304.266,3490.5Z" transform="translate(5319.482 -3473.517)" fill="#fff"/>
</svg>
