<svg xmlns="http://www.w3.org/2000/svg" width="23.225" height="33.589" viewBox="0 0 23.225 33.589">
  <g id="GPS" transform="translate(0.07 0.071)">
    <path id="Path_1211" data-name="Path 1211" d="M-2297.912,2010.408h0a21.256,21.256,0,0,1-8.052-1.493,6.831,6.831,0,0,1-2.432-1.613,2.931,2.931,0,0,1,.026-4.235,7.841,7.841,0,0,1,3.266-1.939.948.948,0,0,1,.32-.057.913.913,0,0,1,.848.645.914.914,0,0,1-.515,1.2c-.154.069-.316.141-.515.225a9,9,0,0,0-.992.476,4.868,4.868,0,0,0-1.08.845.959.959,0,0,0,0,1.472,4.993,4.993,0,0,0,1.837,1.231,15.549,15.549,0,0,0,4.6,1.158,24.6,24.6,0,0,0,2.9.172,24.511,24.511,0,0,0,3.941-.321,12.069,12.069,0,0,0,4.612-1.573,4,4,0,0,0,.786-.662.987.987,0,0,0,.017-1.485,5.244,5.244,0,0,0-1.976-1.293c-.072-.031-.156-.066-.281-.113l-.022-.007c-.12-.047-.232-.093-.344-.146a.9.9,0,0,1-.49-1.173.917.917,0,0,1,.864-.645,1,1,0,0,1,.3.046,6.487,6.487,0,0,1,.8.3,7.453,7.453,0,0,1,2.469,1.633,2.9,2.9,0,0,1,0,4.262,8.616,8.616,0,0,1-3.865,2.129,23.906,23.906,0,0,1-7.014.958Zm-.623-4.685a47.248,47.248,0,0,1-8.208-9.829,16.94,16.94,0,0,1-2.412-5.965c-.06-.355-.09-.721-.122-1.107l-.022-.26c-.006-.053-.011-.109-.016-.165l-.009-.1v-.011a11.642,11.642,0,0,1,10.489-11.411c.41-.038.8-.058,1.162-.058a11.537,11.537,0,0,1,7.674,2.939,11.617,11.617,0,0,1,3.815,7.364,11.94,11.94,0,0,1-1.316,6.611,32.806,32.806,0,0,1-5.28,7.722c-1.091,1.222-2.273,2.42-3.316,3.479-.225.228-.446.454-.666.677l-.109.112a1.175,1.175,0,0,1-.817.441A1.258,1.258,0,0,1-2298.535,2005.723Zm-6.264-23.857a9.026,9.026,0,0,0-2.5,7.522,13.139,13.139,0,0,0,1.837,4.93,38.326,38.326,0,0,0,5.53,7.277c.513.545,1.074,1.064,1.57,1.523l.093.085.213.2c.141.131.286.266.428.4a54.749,54.749,0,0,0,5.3-5.941,26.718,26.718,0,0,0,3.312-5.411,9.249,9.249,0,0,0,.773-6.015,9.3,9.3,0,0,0-6.916-7.338,10.63,10.63,0,0,0-2.793-.4A9.222,9.222,0,0,0-2304.8,1981.866Zm7.1,11.092a4.566,4.566,0,0,1-4.541-4.536,4.463,4.463,0,0,1,1.3-3.194,4.541,4.541,0,0,1,3.227-1.358h.016a4.549,4.549,0,0,1,4.541,4.53,4.5,4.5,0,0,1-1.32,3.215,4.522,4.522,0,0,1-3.209,1.342Zm-2.629-4.54a2.629,2.629,0,0,0,2.625,2.622h.012a2.64,2.64,0,0,0,1.857-.774,2.637,2.637,0,0,0,.763-1.873v-.146l-.03-.211a2.638,2.638,0,0,0-2.6-2.249h-.011A2.63,2.63,0,0,0-2300.333,1988.418Z" transform="translate(2309.254 -1976.889)" fill="#fff"/>
  </g>
</svg>
